<svg xmlns="http://www.w3.org/2000/svg" xmlns:xlink="http://www.w3.org/1999/xlink" version="1.1" x="0px" y="0px" viewBox="0 0 100 125" style="enable-background:new 0 0 100 100;" xml:space="preserve"><path d="M33.2,55c0.4,2-0.7,3.6-2.6,3.6h-3.3L27,62.4L25.3,83c-0.2,2-1.7,3.7-3.4,3.7h-6.2c-1.7,0-3.2-1.7-3.4-3.7l-1.6-20.6  l-0.3-3.7H7.2c-1.8,0-2.8-1.6-2.4-3.6l3.3-15.2c0.4-2,2.5-3.6,4.5-3.6h2.7h7.4h2.7c2,0,4.1,1.6,4.5,3.6L33.2,55 M26.4,25.8  c0-4.1-3.3-7.4-7.4-7.4s-7.4,3.3-7.4,7.4c0,4.1,3.3,7.4,7.4,7.4S26.4,29.9,26.4,25.8"/><path d="M61.6,48.1C62,49.7,61,51,59.6,51h-2.7l-0.2,3l-1.3,16.7c-0.1,1.6-1.4,3-2.8,3h-5c-1.4,0-2.6-1.3-2.8-3L43.4,54l-0.3-3h-2.6  c-1.4,0-2.3-1.3-2-2.9l2.7-12.3c0.4-1.6,2-2.9,3.6-2.9h2.2h6h2.2c1.7,0,3.3,1.3,3.6,2.9L61.6,48.1 M56.1,24.4c0-3.3-2.7-6-6-6  c-3.3,0-6,2.7-6,6c0,3.3,2.7,6,6,6C53.4,30.4,56.1,27.7,56.1,24.4"/><path d="M50.2,86.7c-3.2,0-6.3,0-9.5,0c-2.2,0-3.2-0.6-3.3-2.2c-0.1-2.3-0.1-4.7,0-7c0-1.5,1.1-2.3,3.2-2.3c6.3,0,12.7,0,19,0  c2.3,0,3.2,0.8,3.3,2.4c0,2.3,0,4.6,0,6.8c0,1.6-1,2.2-3.2,2.2C56.5,86.7,53.3,86.7,50.2,86.7z"/><path d="M90.6,42.4c0.3,1.3-0.5,2.4-1.7,2.4h-2.2l-0.2,2.4l-1.1,13.5c-0.1,1.3-1.1,2.4-2.2,2.4h-4.1c-1.1,0-2.1-1.1-2.2-2.4  l-1.1-13.5l-0.2-2.4h-2.1c-1.2,0-1.9-1.1-1.6-2.4l2.2-10c0.3-1.3,1.6-2.4,3-2.4h1.8h4.9h1.8c1.3,0,2.7,1.1,3,2.4L90.6,42.4   M86.1,23.2c0-2.7-2.2-4.9-4.9-4.9c-2.7,0-4.9,2.2-4.9,4.9c0,2.7,2.2,4.9,4.9,4.9C83.9,28.1,86.1,25.9,86.1,23.2"/><path d="M81.3,86.7c-3.2,0-6.3,0-9.5,0c-2.2,0-3.2-1.2-3.3-4.2c-0.1-4.4-0.1-8.9,0-13.3c0-2.9,1.1-4.3,3.2-4.4  c6.3-0.1,12.7-0.1,19,0c2.3,0,3.2,1.4,3.3,4.6c0,4.3,0,8.7,0,13c0,3-1,4.2-3.2,4.3C87.6,86.7,84.5,86.7,81.3,86.7z"/><text x="0" y="115" fill="#000000" font-size="5px" font-weight="bold" font-family="'Helvetica Neue', Helvetica, Arial-Unicode, Arial, Sans-serif">Created by Laura Amaya</text><text x="0" y="120" fill="#000000" font-size="5px" font-weight="bold" font-family="'Helvetica Neue', Helvetica, Arial-Unicode, Arial, Sans-serif">from the Noun Project</text></svg>