<svg xmlns="http://www.w3.org/2000/svg" xmlns:xlink="http://www.w3.org/1999/xlink" version="1.1" x="0px" y="0px" viewBox="0 0 512 640" style="enable-background:new 0 0 512 512;" xml:space="preserve"><style type="text/css">
	.st0{fill-rule:evenodd;clip-rule:evenodd;}
</style><path class="st0" d="M174.09,446.49c5.44,2.24,11.2-0.4,13.61-5.64l19.33-44.93c1.11-2.55,1.13-5.41,0.11-7.99  c-3.43-8.59-15.62-8.76-19.28-0.26l-19.33,44.9c-2.3,5.7-0.06,11.25,5.47,13.89l0.06,0.03H174.09z M204.73,57.16  c-6.07-4.05-13.92-5.33-20.47-1.67c-7.2,4.03-8.96,11.23-8.67,18.99c0.74,7.94,1.59,17.4,2.44,26.9c0.17,1.93,0.37,4,0.88,9.69  c0.71,7.77,4.68,15.53,13.15,16.41c6.49,0.68,12.3-3.29,14.37-9.47c-0.45-2.1-0.74-4.39-0.77-6.83  C205.38,95.03,203.31,72.63,204.73,57.16L204.73,57.16z M56.56,59.65c-2.21,5.44,0.4,11.2,5.67,13.61l44.9,19.3  c2.55,1.11,5.41,1.13,7.99,0.11c8.62-3.43,8.79-15.62,0.25-19.28l-44.9-19.33c-5.7-2.3-11.23-0.03-13.86,5.47l-0.03,0.06  L56.56,59.65z M57.61,229.1c2.89,4.22,7.82,5.78,12.87,3.74l44.9-19.33c8.53-3.66,8.36-15.85-0.25-19.28  c-2.58-1.02-5.44-0.99-7.99,0.11l-44.9,19.3c-4.73,2.18-7.34,7.03-6.18,11.96l-0.23,0.09l0.79,1.67c0.03,0.03,0.03,0.09,0.06,0.14  l0.68,1.7L57.61,229.1z M30.97,143.44c0,5.75,4.71,10.46,10.43,10.46h49.04c2.75,0,5.39-1.13,7.34-3.09  c6.58-6.58,1.87-17.8-7.34-17.8H41.4C35.67,133.01,30.97,137.72,30.97,143.44L30.97,143.44z M442.79,59.65  c2.24,5.44-0.4,11.2-5.67,13.61l-44.9,19.3c-2.55,1.11-5.41,1.13-7.99,0.11c-8.59-3.43-8.76-15.62-0.25-19.28l44.9-19.33  c5.7-2.3,11.25-0.03,13.89,5.47v0.06L442.79,59.65z M441.74,229.1c-2.89,4.22-7.82,5.78-12.87,3.74l-44.9-19.33  c-8.5-3.66-8.33-15.85,0.25-19.28c2.58-1.02,5.44-0.99,7.99,0.11l44.9,19.3c4.73,2.18,7.34,7.03,6.21,11.96l0.23,0.09l-0.79,1.67  c-0.03,0.03-0.06,0.09-0.08,0.14l-0.65,1.7L441.74,229.1z M468.41,143.44c0,5.75-4.71,10.46-10.43,10.46h-49.04  c-2.78,0-5.41-1.13-7.37-3.09c-6.58-6.58-1.87-17.8,7.37-17.8h49.04C463.7,133.01,468.41,137.72,468.41,143.44L468.41,143.44z   M110.42,290.25H87.6c3.49-14.23,10.86-26.96,20.89-36.99c13.44-13.44,31.66-22.05,51.93-23.07v21.94  c-14.2,0.99-26.99,7.14-36.45,16.61C117.96,274.74,113.31,282.06,110.42,290.25L110.42,290.25z M136.79,320.1H43.92  c-9.61,0-14.66-11.71-7.74-18.65c1.98-1.98,4.73-3.2,7.74-3.2h92.86c9.61,0,14.66,11.71,7.74,18.65  C142.54,318.88,139.79,320.1,136.79,320.1L136.79,320.1z M160.43,366.22v21.94c-20.27-0.99-38.49-9.64-51.93-23.07  c-10.03-10.03-17.4-22.73-20.89-36.99h22.82c2.89,8.19,7.54,15.51,13.55,21.52C133.44,359.07,146.22,365.25,160.43,366.22  L160.43,366.22z M338.9,366.22v21.94c20.27-0.99,38.49-9.64,51.93-23.07c10.03-10.03,17.38-22.73,20.89-36.99h-22.85  c-2.86,8.19-7.54,15.51-13.52,21.52C365.88,359.07,353.1,365.25,338.9,366.22L338.9,366.22z M362.54,320.1h92.86  c9.58,0,14.65-11.71,7.71-18.65c-1.96-1.98-4.71-3.2-7.71-3.2h-92.86c-9.61,0-14.65,11.71-7.74,18.65  C356.78,318.88,359.53,320.1,362.54,320.1L362.54,320.1z M388.87,290.25h22.85c-3.51-14.23-10.86-26.96-20.89-36.99  c-13.44-13.44-31.66-22.05-51.93-23.07v21.94c14.2,0.99,26.99,7.14,36.45,16.61C381.33,274.74,386.01,282.06,388.87,290.25  L388.87,290.25z M334.33,134c0.45-11.99-1.22-22.93-4.85-34.36l-3.85,23.92C328.97,126.66,331.95,130.12,334.33,134L334.33,134z   M311.8,256.15c1.36,4.34-1.53,8.19-7.17,11.42c0-5.78-0.17-11.4,0.68-17.15C307.71,251.58,310.58,253.74,311.8,256.15L311.8,256.15  z M196.91,243.42c-12.61,5.58-11.79,16.02-0.57,23.16C197.3,258.81,197.9,251.19,196.91,243.42L196.91,243.42z M203.91,270.35  c24.18,9.64,67.78,9.58,92.75,0.74c0-25.77,1.11-33.62,15.34-56.18c8.36-13.24,17.72-28.06,20.1-57.71c0.88-10.89-3.8-19.98-11-26.9  c-9.27-8.96-22.59-14.34-33.76-15.45c-12.84-1.28-30.73-2.52-43.23,0.68c-9.81,2.52-15.02,11.62-12.56,21.23  c4.56,17.77,31.29,15.59,46.49,17.04c4,0.17,5.33,5.56,1.79,7.51c-14.48,7.94-28.8,19.5-32.09,36.6c-0.99,5.16-8.84,3.66-7.85-1.5  c2.95-15.34,13.18-26.87,25.6-35.6c-17.49-1.3-38.01-2.61-42.01-23.75c-5.41-1.56-9.98-5.05-13.1-9.69  c-4.56,5.78-11.82,8.84-19.13,8.08c-6.01-0.62-11.28-3.71-14.88-8.53c-5.84,43.91,3.83,60.69,13.38,76.88  c6.49,10.29,18.17,21.03,40.34,15.14c5.07-1.33,7.09,6.38,2.01,7.74c-10.43,2.75-21.94,2.38-31.8-2.21  C206.32,240.59,206.09,253.54,203.91,270.35L203.91,270.35z M183.47,265.53c-3,13.75-3.12,33.08,7.09,44.08  c21.54,23.24,88.53,22.34,113.47,4.39c13.86-9.95,14.8-29.65,11.74-44.99C294.08,292.18,202.04,291.33,183.47,265.53L183.47,265.53z   M212.56,60.19l1.08,50.88c0.11,7.09,3,14.12,9.61,17.35c1.53-10.8,9.07-18.28,19.64-20.81c0.43-12.39,0.62-24.69,0.79-37.11  c0.08-7.26-0.48-16.61,1.93-23.64c-5.13-5.78-12.64-8.65-20.18-6.12C217.01,43.55,212.58,51.57,212.56,60.19L212.56,60.19z   M250.94,106.25c10.49-1.16,21.63-0.68,32.12,0.2c0.2-3.2,0.43-6.83,0.65-10.66c0.65-11.37,0.4-32.57,5.1-42.58  c-1.39-19.25-26.96-22.05-34.33-7.23c-3.4,6.86-2.72,16.16-2.83,24.63C251.5,82.67,251.3,97.32,250.94,106.25L250.94,106.25z   M290.99,107.27c9.01,1.36,18.94,5.02,27.44,10.71l8.7-54c0.17-7.17-3.29-12.3-8.05-14.94c-4.25-2.35-9.58-2.78-14.14-1.02  c-14.74,5.7-12.47,34.47-13.27,48.19C291.42,100.27,291.19,104.1,290.99,107.27L290.99,107.27z M327.1,445.45  c4.22-2.89,5.75-7.82,3.71-12.87l-19.33-44.9c-3.66-8.5-15.85-8.36-19.28,0.26c-1.02,2.58-0.99,5.44,0.11,7.99l19.33,44.9  c2.15,4.73,7,7.34,11.93,6.21l0.08,0.2l1.67-0.79c0.06-0.03,0.08-0.03,0.14-0.06l1.73-0.68L327.1,445.45z M249.69,472.09  c5.73,0,10.43-4.71,10.43-10.43v-49.04c0-2.75-1.11-5.39-3.06-7.34c-6.58-6.58-17.8-1.87-17.8,7.34v49.04  C239.26,467.39,243.93,472.09,249.69,472.09L249.69,472.09z"/><text x="0" y="527" fill="#000000" font-size="5px" font-weight="bold" font-family="'Helvetica Neue', Helvetica, Arial-Unicode, Arial, Sans-serif">Created by Shape'Br</text><text x="0" y="532" fill="#000000" font-size="5px" font-weight="bold" font-family="'Helvetica Neue', Helvetica, Arial-Unicode, Arial, Sans-serif">from the Noun Project</text></svg>