<svg xmlns="http://www.w3.org/2000/svg" version="1.1" viewBox="-5.0 -10.0 110.0 135.0">
 <g>
  <path d="m63.816 96.547h-56.727c-0.80469 0-1.4531-0.65234-1.4531-1.4531v-80.004c0-0.80469 0.65234-1.4531 1.4531-1.4531h9.4531c0.80469 0 1.4531 0.65234 1.4531 1.4531 0 0.80469-0.65234 1.4531-1.4531 1.4531l-7.9961 0.003906v77.09h53.816v-28.547c0-0.80469 0.65234-1.4531 1.4531-1.4531 0.80469 0 1.4531 0.65234 1.4531 1.4531v30c0.003907 0.80469-0.64844 1.457-1.4531 1.457z"/>
  <path d="m63.816 36.547c-0.80469 0-1.4531-0.65234-1.4531-1.4531v-18.547h-8c-0.80469 0-1.4531-0.65234-1.4531-1.4531 0-0.80469 0.65234-1.4531 1.4531-1.4531h9.4531c0.80469 0 1.4531 0.65234 1.4531 1.4531v20c0.003907 0.80078-0.64844 1.4531-1.4531 1.4531z"/>
  <path d="m54.352 20.91h-37.816c-0.80469 0-1.4531-0.65234-1.4531-1.4531l-0.003906-8.7305c0-0.80469 0.65234-1.4531 1.4531-1.4531h13.09c0.80078 0 1.4531-0.65234 1.4531-1.4531 0-2.4062 1.957-4.3633 4.3633-4.3633s4.3633 1.957 4.3633 4.3633c0 0.80078 0.65234 1.4531 1.4531 1.4531h13.09c0.80469 0 1.4531 0.65234 1.4531 1.4531v8.7266c0.007813 0.80469-0.64062 1.457-1.4453 1.457zm-36.363-2.9102h34.91v-5.8164h-11.637c-2.4062 0-4.3633-1.957-4.3633-4.3633 0-0.80078-0.65234-1.4531-1.4531-1.4531-0.80078 0-1.4531 0.65234-1.4531 1.4531 0 2.4062-1.957 4.3633-4.3633 4.3633h-11.637z"/>
  <path d="m20.898 35.453h-5.8164c-0.80469 0-1.4531-0.65234-1.4531-1.4531v-5.8164c0-0.80469 0.65234-1.4531 1.4531-1.4531h5.8164c0.80469 0 1.4531 0.65234 1.4531 1.4531v5.8164c0 0.80469-0.65234 1.4531-1.4531 1.4531zm-4.3672-2.9062h2.9102v-2.9102h-2.9102z"/>
  <path d="m20.898 48.547h-5.8164c-0.80469 0-1.4531-0.65234-1.4531-1.4531v-5.8164c0-0.80469 0.65234-1.4531 1.4531-1.4531h5.8164c0.80469 0 1.4531 0.65234 1.4531 1.4531v5.8164c0 0.80078-0.65234 1.4531-1.4531 1.4531zm-4.3672-2.9102h2.9102v-2.9102h-2.9102z"/>
  <path d="m20.898 61.637h-5.8164c-0.80469 0-1.4531-0.65234-1.4531-1.4531v-5.8164c0-0.80469 0.65234-1.4531 1.4531-1.4531h5.8164c0.80469 0 1.4531 0.65234 1.4531 1.4531v5.8164c0 0.80078-0.65234 1.4531-1.4531 1.4531zm-4.3672-2.9102h2.9102v-2.9102h-2.9102z"/>
  <path d="m20.898 74.727h-5.8164c-0.80469 0-1.4531-0.65234-1.4531-1.4531v-5.8164c0-0.80469 0.65234-1.4531 1.4531-1.4531h5.8164c0.80469 0 1.4531 0.65234 1.4531 1.4531v5.8164c0 0.80078-0.65234 1.4531-1.4531 1.4531zm-4.3672-2.9102h2.9102v-2.9102h-2.9102z"/>
  <path d="m20.898 87.816h-5.8164c-0.80469 0-1.4531-0.65234-1.4531-1.4531v-5.8164c0-0.80469 0.65234-1.4531 1.4531-1.4531h5.8164c0.80469 0 1.4531 0.65234 1.4531 1.4531v5.8164c0 0.80469-0.65234 1.4531-1.4531 1.4531zm-4.3672-2.9062h2.9102v-2.9102h-2.9102z"/>
  <path d="m58 29.637h-32c-0.80469 0-1.4531-0.65234-1.4531-1.4531 0-0.80469 0.65234-1.4531 1.4531-1.4531h32c0.80469 0 1.4531 0.65234 1.4531 1.4531 0 0.80078-0.64844 1.4531-1.4531 1.4531z"/>
  <path d="m44.91 35.453h-18.91c-0.80469 0-1.4531-0.65234-1.4531-1.4531 0-0.80469 0.65234-1.4531 1.4531-1.4531h18.91c0.80469 0 1.4531 0.65234 1.4531 1.4531 0 0.80469-0.65234 1.4531-1.4531 1.4531z"/>
  <path d="m39.09 42.727h-13.09c-0.80469 0-1.4531-0.65234-1.4531-1.4531 0-0.80469 0.65234-1.4531 1.4531-1.4531h13.09c0.80469 0 1.4531 0.65234 1.4531 1.4531 0.003906 0.80078-0.64844 1.4531-1.4531 1.4531z"/>
  <path d="m37.637 48.547h-11.637c-0.80469 0-1.4531-0.65234-1.4531-1.4531 0-0.80469 0.65234-1.4531 1.4531-1.4531h11.637c0.80469 0 1.4531 0.65234 1.4531 1.4531s-0.64844 1.4531-1.4531 1.4531z"/>
  <path d="m37.637 55.816h-11.637c-0.80469 0-1.4531-0.65234-1.4531-1.4531 0-0.80469 0.65234-1.4531 1.4531-1.4531h11.637c0.80469 0 1.4531 0.65234 1.4531 1.4531 0 0.80469-0.64844 1.4531-1.4531 1.4531z"/>
  <path d="m39.09 61.637h-13.09c-0.80469 0-1.4531-0.65234-1.4531-1.4531 0-0.80469 0.65234-1.4531 1.4531-1.4531h13.09c0.80469 0 1.4531 0.65234 1.4531 1.4531 0.003906 0.80078-0.64844 1.4531-1.4531 1.4531z"/>
  <path d="m44.91 68.91h-18.91c-0.80469 0-1.4531-0.65234-1.4531-1.4531 0-0.80469 0.65234-1.4531 1.4531-1.4531h18.91c0.80469 0 1.4531 0.65234 1.4531 1.4531s-0.65234 1.4531-1.4531 1.4531z"/>
  <path d="m58 74.727h-32c-0.80469 0-1.4531-0.65234-1.4531-1.4531 0-0.80469 0.65234-1.4531 1.4531-1.4531h32c0.80469 0 1.4531 0.65234 1.4531 1.4531 0 0.80078-0.64844 1.4531-1.4531 1.4531z"/>
  <path d="m58 82h-32c-0.80469 0-1.4531-0.65234-1.4531-1.4531 0-0.80469 0.65234-1.4531 1.4531-1.4531h32c0.80469 0 1.4531 0.65234 1.4531 1.4531s-0.64844 1.4531-1.4531 1.4531z"/>
  <path d="m58 87.816h-32c-0.80469 0-1.4531-0.65234-1.4531-1.4531 0-0.80469 0.65234-1.4531 1.4531-1.4531h32c0.80469 0 1.4531 0.65234 1.4531 1.4531 0 0.80469-0.64844 1.4531-1.4531 1.4531z"/>
  <path d="m58.129 67.586c-4.4688 0-8.9414-1.7031-12.344-5.1055-6.8047-6.8047-6.8047-17.879 0-24.684 3.2969-3.2969 7.6797-5.1133 12.344-5.1133 4.6641 0 9.0469 1.8164 12.344 5.1133 6.8047 6.8047 6.8047 17.879 0 24.684-3.4062 3.4062-7.875 5.1055-12.344 5.1055zm0-31.984c-3.7266 0-7.4492 1.418-10.285 4.2539-5.6719 5.6719-5.6719 14.898 0 20.57 2.8359 2.8359 6.5625 4.2539 10.285 4.2539 3.7266 0 7.4492-1.418 10.285-4.2539 5.6719-5.6719 5.6719-14.898 0-20.57-2.8359-2.8359-6.5625-4.2539-10.285-4.2539z"/>
  <path d="m90.012 86.387c-1.1172 0-2.2344-0.42578-3.0859-1.2773l-16.457-16.457c-0.56641-0.56641-0.56641-1.4883 0-2.0586l4.1133-4.1133c0.27344-0.27344 0.64453-0.42578 1.0273-0.42578 0.38672 0 0.75391 0.15234 1.0273 0.42578l16.457 16.457c0.82422 0.82422 1.2773 1.9219 1.2773 3.0859 0 1.1641-0.45312 2.2617-1.2773 3.0859-0.84766 0.85156-1.9648 1.2773-3.082 1.2773zm-16.457-18.762 15.43 15.43c0.56641 0.56641 1.4883 0.56641 2.0586 0 0.27344-0.27344 0.42578-0.64063 0.42578-1.0273 0-0.38672-0.15234-0.75391-0.42578-1.0273l-15.43-15.43z"/>
  <path d="m73.555 67.023c-0.37109 0-0.74609-0.14063-1.0273-0.42578l-4.1133-4.1133c-0.56641-0.56641-0.56641-1.4883 0-2.0586 0.56641-0.56641 1.4883-0.56641 2.0586 0l4.1133 4.1133c0.56641 0.56641 0.56641 1.4883 0 2.0586-0.28516 0.28516-0.65625 0.42578-1.0312 0.42578z"/>
  <path d="m84.871 82.449c-0.37109 0-0.74609-0.14062-1.0273-0.42578-0.56641-0.56641-0.56641-1.4883 0-2.0586l4.1133-4.1133c0.56641-0.56641 1.4883-0.56641 2.0586 0 0.56641 0.56641 0.56641 1.4883 0 2.0586l-4.1133 4.1133c-0.28906 0.28516-0.66016 0.42578-1.0312 0.42578z"/>
  <path d="m57.988 57.273c-6.2578 0-11.121-6.1172-11.328-6.375-0.41406-0.52734-0.41406-1.2656 0-1.793 0.20312-0.26172 5.0664-6.375 11.328-6.375 6.2578 0 11.121 6.1172 11.328 6.375 0.41406 0.52734 0.41406 1.2656 0 1.793-0.20703 0.25781-5.0703 6.375-11.328 6.375zm-8.2383-7.2773c1.4414 1.5 4.6562 4.3672 8.2383 4.3672 3.6016 0 6.8047-2.8594 8.2383-4.3633-1.4414-1.5-4.6562-4.3633-8.2383-4.3633-3.6016 0-6.8047 2.8594-8.2383 4.3594z"/>
  <path d="m57.988 51.453c-2.4062 0-4.3633-1.957-4.3633-4.3633s1.957-4.3633 4.3633-4.3633 4.3633 1.957 4.3633 4.3633-1.957 4.3633-4.3633 4.3633zm0-5.8164c-0.80078 0-1.4531 0.65234-1.4531 1.4531 0 0.80078 0.65234 1.4531 1.4531 1.4531s1.4531-0.65234 1.4531-1.4531c0-0.80078-0.65234-1.4531-1.4531-1.4531z"/>
 </g>
<text x="0.0" y="117.5" font-size="5.0" font-weight="bold" font-family="Arbeit Regular, Helvetica, Arial-Unicode, Arial, Sans-serif" fill="#000000">Created by SAM Designs</text><text x="0.0" y="122.5" font-size="5.0" font-weight="bold" font-family="Arbeit Regular, Helvetica, Arial-Unicode, Arial, Sans-serif" fill="#000000">from Noun Project</text></svg>